<svg xmlns="http://www.w3.org/2000/svg" width="90.863" height="90.863" viewBox="0 0 90.863 90.863">
        <path fill="#fff" stroke="rgba(0,0,0,0)" stroke-miterlimit="10" d="M18 36A18 18 0 0 1 5.272 5.272a18 18 0 0 1 25.456 25.456A17.882 17.882 0 0 1 18 36zm-1.8-16.228h3.426l2.036 7.1h6.715l-2.025-7.1H28.8V18.2h-2.9l-.322-1.134H28.8v-1.548h-3.673l-2.283-7.994h-9.858L10.7 15.518H7.031v1.548h3.226L9.935 18.2h-2.9v1.572h2.441l-2.021 7.1h6.721l2.024-7.099zm9.34 5.544h-1.928l-1.586-5.544h1.929l1.586 5.543zm-13.322 0h-1.932l1.589-5.544H13.8l-1.586 5.543zM23.509 18.2h-1.941l-.322-1.134h1.932l.331 1.133zm-4.328 0h-2.523l.326-1.134h1.866l.331 1.133zm-4.919 0h-1.931l.322-1.134h1.929l-.32 1.134zm8.469-2.683h-1.92l-1.672-5.824h1.932l1.659 5.824zm-4.316 0h-.986l.487-1.725.5 1.724zm-3.388 0H13.1l1.66-5.825h1.932l-1.663 5.824z" transform="translate(.5 .5)"/>
</svg>
