<svg xmlns="http://www.w3.org/2000/svg" width="90.863" height="90.863" viewBox="0 0 90.863 90.863">
    <path fill="#ffffff" stroke="rgba(0,0,0,0)" stroke-miterlimit="10" d="M44.932 89.863A44.983 44.983 0 0 1 0 44.931v-.3A44.591 44.591 0 0 1 44.629 0h.3a44.932 44.932 0 1 1 0 89.863zm-4.395-40.606H48.9l4.97 17.324h16.397l-4.941-17.324h5.979V45.42h-7.1l-.787-2.769h7.884v-3.78h-8.97l-5.575-19.516H32.691l-5.576 19.516H18.15v3.78h7.877l-.787 2.769h-7.09v3.837h5.972l-4.934 17.324H35.6l4.94-17.324zm22.805 13.537h-4.709L54.76 49.257h4.71l3.872 13.536zm-32.528 0H26.1l3.881-13.537h4.711l-3.877 13.537zM58.381 45.42h-4.739l-.786-2.769h4.716l.808 2.768zm-10.567 0h-6.159l.794-2.769h4.558l.808 2.768zm-12.008 0h-4.717l.787-2.769h4.709l-.779 2.769zm20.678-6.549H51.8l-4.086-14.222h4.716l4.052 14.222zm-10.537 0h-2.409l1.19-4.212 1.219 4.211zm-8.273 0h-4.71l4.053-14.223h4.717l-4.06 14.223z" transform="translate(.5 .5)"/>
</svg>
